<mxfile host="app.diagrams.net" modified="2023-07-13T11:52:47.258Z" agent="Mozilla/5.0 (X11; Linux x86_64; rv:102.0) Gecko/20100101 Firefox/102.0" etag="YRRlf0_oIFPWbYW6miLW" version="21.6.2" type="github">
  <diagram name="Page-1" id="lhWWaMpEu8fQ6LXQEqeM">
    <mxGraphModel dx="1324" dy="744" grid="1" gridSize="10" guides="1" tooltips="1" connect="1" arrows="1" fold="1" page="1" pageScale="1" pageWidth="827" pageHeight="1169" math="0" shadow="0">
      <root>
        <mxCell id="0" />
        <mxCell id="1" parent="0" />
        <mxCell id="IkbrlV8vESrTVHvmI2JB-1" value="Jungfrau_1" style="text;html=1;align=center;verticalAlign=middle;resizable=0;points=[];autosize=1;strokeColor=none;fillColor=none;" parent="1" vertex="1">
          <mxGeometry x="120" y="110" width="80" height="30" as="geometry" />
        </mxCell>
        <mxCell id="IkbrlV8vESrTVHvmI2JB-2" value="Jungfrau_2" style="text;html=1;align=center;verticalAlign=middle;resizable=0;points=[];autosize=1;strokeColor=none;fillColor=none;" parent="1" vertex="1">
          <mxGeometry x="120" y="190" width="80" height="30" as="geometry" />
        </mxCell>
        <mxCell id="IkbrlV8vESrTVHvmI2JB-3" value="Jungfrau_3" style="text;html=1;align=center;verticalAlign=middle;resizable=0;points=[];autosize=1;strokeColor=none;fillColor=none;" parent="1" vertex="1">
          <mxGeometry x="120" y="270" width="80" height="30" as="geometry" />
        </mxCell>
        <mxCell id="YUZyJieERLatUHZrbaA8-16" style="edgeStyle=orthogonalEdgeStyle;rounded=0;orthogonalLoop=1;jettySize=auto;html=1;entryX=0.629;entryY=-0.001;entryDx=0;entryDy=0;entryPerimeter=0;" parent="1" target="IkbrlV8vESrTVHvmI2JB-17" edge="1">
          <mxGeometry relative="1" as="geometry">
            <mxPoint x="210" y="120" as="sourcePoint" />
            <Array as="points">
              <mxPoint x="450" y="121" />
              <mxPoint x="450" y="360" />
            </Array>
          </mxGeometry>
        </mxCell>
        <mxCell id="YUZyJieERLatUHZrbaA8-17" style="edgeStyle=orthogonalEdgeStyle;rounded=0;orthogonalLoop=1;jettySize=auto;html=1;entryX=0.372;entryY=-0.015;entryDx=0;entryDy=0;entryPerimeter=0;" parent="1" target="IkbrlV8vESrTVHvmI2JB-17" edge="1">
          <mxGeometry relative="1" as="geometry">
            <mxPoint x="210" y="200" as="sourcePoint" />
            <Array as="points">
              <mxPoint x="430" y="201" />
              <mxPoint x="430" y="359" />
            </Array>
          </mxGeometry>
        </mxCell>
        <mxCell id="YUZyJieERLatUHZrbaA8-18" style="edgeStyle=orthogonalEdgeStyle;rounded=0;orthogonalLoop=1;jettySize=auto;html=1;entryX=0.133;entryY=-0.015;entryDx=0;entryDy=0;entryPerimeter=0;" parent="1" target="IkbrlV8vESrTVHvmI2JB-17" edge="1">
          <mxGeometry relative="1" as="geometry">
            <mxPoint x="210" y="280" as="sourcePoint" />
            <Array as="points">
              <mxPoint x="410" y="281" />
              <mxPoint x="410" y="359" />
            </Array>
          </mxGeometry>
        </mxCell>
        <mxCell id="YUZyJieERLatUHZrbaA8-4" style="edgeStyle=orthogonalEdgeStyle;rounded=0;orthogonalLoop=1;jettySize=auto;html=1;entryX=0;entryY=0.5;entryDx=0;entryDy=0;" parent="1" source="IkbrlV8vESrTVHvmI2JB-17" target="YUZyJieERLatUHZrbaA8-1" edge="1">
          <mxGeometry relative="1" as="geometry" />
        </mxCell>
        <mxCell id="IkbrlV8vESrTVHvmI2JB-17" value="pyfai" style="rounded=0;whiteSpace=wrap;html=1;" parent="1" vertex="1">
          <mxGeometry x="400" y="360" width="80" height="40" as="geometry" />
        </mxCell>
        <mxCell id="IkbrlV8vESrTVHvmI2JB-30" value="" style="shape=link;html=1;rounded=0;" parent="1" edge="1">
          <mxGeometry width="100" relative="1" as="geometry">
            <mxPoint x="750" y="560" as="sourcePoint" />
            <mxPoint x="750" y="10" as="targetPoint" />
          </mxGeometry>
        </mxCell>
        <mxCell id="IkbrlV8vESrTVHvmI2JB-33" value="outputs" style="edgeLabel;html=1;align=center;verticalAlign=middle;resizable=0;points=[];" parent="IkbrlV8vESrTVHvmI2JB-30" vertex="1" connectable="0">
          <mxGeometry x="0.9459" y="-3" relative="1" as="geometry">
            <mxPoint x="-3" as="offset" />
          </mxGeometry>
        </mxCell>
        <mxCell id="IkbrlV8vESrTVHvmI2JB-34" value="Jungfrau_0" style="text;html=1;align=center;verticalAlign=middle;resizable=0;points=[];autosize=1;strokeColor=none;fillColor=none;" parent="1" vertex="1">
          <mxGeometry x="120" y="30" width="80" height="30" as="geometry" />
        </mxCell>
        <mxCell id="YUZyJieERLatUHZrbaA8-15" style="edgeStyle=orthogonalEdgeStyle;rounded=0;orthogonalLoop=1;jettySize=auto;html=1;" parent="1" edge="1">
          <mxGeometry relative="1" as="geometry">
            <mxPoint x="210" y="40" as="sourcePoint" />
            <mxPoint x="470" y="360" as="targetPoint" />
            <Array as="points">
              <mxPoint x="470" y="41" />
              <mxPoint x="470" y="360" />
            </Array>
          </mxGeometry>
        </mxCell>
        <mxCell id="PfKu16TSMddH5ulJ7kb4-1" value="PDFgetX3" style="rounded=0;whiteSpace=wrap;html=1;" parent="1" vertex="1">
          <mxGeometry x="520" y="480" width="80" height="80" as="geometry" />
        </mxCell>
        <mxCell id="xY4bU2UeQcHe0XydMruk-12" style="edgeStyle=orthogonalEdgeStyle;rounded=0;orthogonalLoop=1;jettySize=auto;html=1;" edge="1" parent="1" source="YUZyJieERLatUHZrbaA8-1">
          <mxGeometry relative="1" as="geometry">
            <mxPoint x="750" y="380" as="targetPoint" />
          </mxGeometry>
        </mxCell>
        <mxCell id="xY4bU2UeQcHe0XydMruk-18" style="edgeStyle=orthogonalEdgeStyle;rounded=0;orthogonalLoop=1;jettySize=auto;html=1;entryX=0.5;entryY=0;entryDx=0;entryDy=0;" edge="1" parent="1" source="YUZyJieERLatUHZrbaA8-1" target="PfKu16TSMddH5ulJ7kb4-1">
          <mxGeometry relative="1" as="geometry" />
        </mxCell>
        <mxCell id="YUZyJieERLatUHZrbaA8-1" value="reduce" style="rounded=0;whiteSpace=wrap;html=1;" parent="1" vertex="1">
          <mxGeometry x="520" y="360" width="80" height="40" as="geometry" />
        </mxCell>
        <mxCell id="xY4bU2UeQcHe0XydMruk-15" style="edgeStyle=orthogonalEdgeStyle;rounded=0;orthogonalLoop=1;jettySize=auto;html=1;entryX=0;entryY=0.25;entryDx=0;entryDy=0;" edge="1" parent="1" target="PfKu16TSMddH5ulJ7kb4-1">
          <mxGeometry relative="1" as="geometry">
            <mxPoint x="320" y="500" as="sourcePoint" />
          </mxGeometry>
        </mxCell>
        <mxCell id="xY4bU2UeQcHe0XydMruk-16" style="edgeStyle=orthogonalEdgeStyle;rounded=0;orthogonalLoop=1;jettySize=auto;html=1;entryX=0;entryY=0.75;entryDx=0;entryDy=0;" edge="1" parent="1" target="PfKu16TSMddH5ulJ7kb4-1">
          <mxGeometry relative="1" as="geometry">
            <mxPoint x="320" y="540" as="sourcePoint" />
          </mxGeometry>
        </mxCell>
        <mxCell id="xY4bU2UeQcHe0XydMruk-14" value="" style="endArrow=none;dashed=1;html=1;rounded=0;" edge="1" parent="1">
          <mxGeometry width="50" height="50" relative="1" as="geometry">
            <mxPoint x="50" y="440" as="sourcePoint" />
            <mxPoint x="790" y="440" as="targetPoint" />
          </mxGeometry>
        </mxCell>
        <mxCell id="xY4bU2UeQcHe0XydMruk-19" value="chemical_formula" style="text;html=1;align=center;verticalAlign=middle;resizable=0;points=[];autosize=1;strokeColor=none;fillColor=none;" vertex="1" parent="1">
          <mxGeometry x="200" y="485" width="120" height="30" as="geometry" />
        </mxCell>
        <mxCell id="xY4bU2UeQcHe0XydMruk-20" value="substrate_reduced_data" style="text;html=1;align=center;verticalAlign=middle;resizable=0;points=[];autosize=1;strokeColor=none;fillColor=none;" vertex="1" parent="1">
          <mxGeometry x="170" y="525" width="150" height="30" as="geometry" />
        </mxCell>
        <mxCell id="xY4bU2UeQcHe0XydMruk-21" value="online" style="text;html=1;align=center;verticalAlign=middle;resizable=0;points=[];autosize=1;strokeColor=none;fillColor=none;" vertex="1" parent="1">
          <mxGeometry x="70" y="408" width="60" height="30" as="geometry" />
        </mxCell>
        <mxCell id="xY4bU2UeQcHe0XydMruk-22" value="offline" style="text;html=1;align=center;verticalAlign=middle;resizable=0;points=[];autosize=1;strokeColor=none;fillColor=none;" vertex="1" parent="1">
          <mxGeometry x="70" y="450" width="60" height="30" as="geometry" />
        </mxCell>
      </root>
    </mxGraphModel>
  </diagram>
</mxfile>
